<svg width="35" height="34" viewBox="0 0 35 34" fill="none" xmlns="http://www.w3.org/2000/svg">
<path d="M20.3334 11H21.8334C22.2312 11 22.6127 11.158 22.894 11.4393C23.1753 11.7206 23.3334 12.1022 23.3334 12.5V23C23.3334 23.3978 23.1753 23.7794 22.894 24.0607C22.6127 24.342 22.2312 24.5 21.8334 24.5H12.8334C12.4355 24.5 12.054 24.342 11.7727 24.0607C11.4914 23.7794 11.3334 23.3978 11.3334 23V12.5C11.3334 12.1022 11.4914 11.7206 11.7727 11.4393C12.054 11.158 12.4355 11 12.8334 11H14.3334M17.3334 16.25H20.3334M17.3334 20H20.3334M14.3334 16.25H14.3409M14.3334 20H14.3409M15.0834 9.5H19.5834C19.9976 9.5 20.3334 9.83579 20.3334 10.25V11.75C20.3334 12.1642 19.9976 12.5 19.5834 12.5H15.0834C14.6692 12.5 14.3334 12.1642 14.3334 11.75V10.25C14.3334 9.83579 14.6692 9.5 15.0834 9.5Z" stroke="#3A3A3A" stroke-width="1.5" stroke-linecap="round" stroke-linejoin="round"/>
</svg>
