<svg width="34" height="34" viewBox="0 0 34 34" fill="none" xmlns="http://www.w3.org/2000/svg">
<path d="M20 11H21.5C21.8978 11 22.2794 11.158 22.5607 11.4393C22.842 11.7206 23 12.1022 23 12.5V23C23 23.3978 22.842 23.7794 22.5607 24.0607C22.2794 24.342 21.8978 24.5 21.5 24.5H12.5C12.1022 24.5 11.7206 24.342 11.4393 24.0607C11.158 23.7794 11 23.3978 11 23V12.5C11 12.1022 11.158 11.7206 11.4393 11.4393C11.7206 11.158 12.1022 11 12.5 11H14M14.75 18.5L16.25 20L19.25 17M14.75 9.5H19.25C19.6642 9.5 20 9.83579 20 10.25V11.75C20 12.1642 19.6642 12.5 19.25 12.5H14.75C14.3358 12.5 14 12.1642 14 11.75V10.25C14 9.83579 14.3358 9.5 14.75 9.5Z" stroke="#3A3A3A" stroke-width="1.5" stroke-linecap="round" stroke-linejoin="round"/>
</svg>
